<svg version="1.1" id="Layer_1" xmlns:x="ns_extend;" xmlns:i="ns_ai;" xmlns:graph="ns_graphs;" xmlns="http://www.w3.org/2000/svg" xmlns:xlink="http://www.w3.org/1999/xlink" x="0px" y="0px" viewBox="0 0 194.7 50" style="enable-background:new 0 0 194.7 50;" xml:space="preserve">
 <style type="text/css">
  .st0{fill:#4B4D4F;}
	.st1{fill-rule:evenodd;clip-rule:evenodd;fill:#E81738;}
 </style>
 <metadata>
  <sfw xmlns="ns_sfw;">
   <slices>
   </slices>
   <sliceSourceBounds bottomLeftOrigin="true" height="50" width="194.7" x="50.9" y="-211.8">
   </sliceSourceBounds>
  </sfw>
 </metadata>
 <g>
  <polygon class="st0" points="19.1,4.3 12,4.3 12,17.6 7.1,17.6 7.1,4.3 0,4.3 0,0.3 19.1,0.3 	">
  </polygon>
  <polygon class="st0" points="21.5,17.6 21.5,0.3 38.1,0.3 38.1,4 26.4,4 26.4,7 37.4,7 37.4,10.5 26.4,10.5 26.4,13.9 38.7,13.9 
		38.7,17.6 	">
  </polygon>
  <path class="st0" d="M40.8,9.3c0-2.2,0.4-3.9,1.3-5.3c0.8-1.4,2.1-2.4,3.8-3c1.7-0.7,3.7-1,6.1-1c0.8,0,1.5,0,2.2,0.1
		c0.6,0,1.2,0.1,1.8,0.2c0.6,0.1,1.1,0.2,1.6,0.3c0.5,0.1,1.1,0.2,1.7,0.4l-1,3.5c-0.7-0.1-1.4-0.3-2.1-0.4c-0.7-0.1-1.3-0.2-2-0.2
		c-0.6,0-1.3-0.1-1.9-0.1c-1.1,0-2.1,0.1-2.9,0.3c-0.8,0.2-1.5,0.5-2,1c-0.5,0.4-0.9,1-1.1,1.7c-0.3,0.7-0.4,1.5-0.4,2.5
		c0,0.9,0.1,1.6,0.4,2.2c0.2,0.6,0.6,1.1,1.1,1.5c0.5,0.4,1.2,0.7,1.9,0.9c0.8,0.2,1.7,0.3,2.8,0.3c1.1,0,2.3-0.1,3.4-0.2
		c1.2-0.1,2.3-0.3,3.4-0.6l0.9,3.4c-0.6,0.2-1.1,0.3-1.7,0.4c-0.6,0.1-1.2,0.2-1.9,0.3c-0.7,0.1-1.4,0.2-2.2,0.2
		c-0.8,0.1-1.7,0.1-2.7,0.1c-1.7,0-3.2-0.2-4.6-0.5c-1.3-0.3-2.4-0.8-3.3-1.5c-0.9-0.7-1.6-1.6-2-2.6C41,12.2,40.8,10.8,40.8,9.3">
  </path>
  <polygon class="st0" points="62.5,17.6 62.5,0.3 67.5,0.3 67.5,7.7 77,7.7 77,0.3 82,0.3 82,17.6 77,17.6 77,11.7 67.5,11.7 
		67.5,17.6 	">
  </polygon>
  <path class="st1" d="M41.7,32.7H55c3,0,5.5,2.4,5.5,5.3V50H40.6c-1.8,0-3.3-1.4-3.3-3.2v-4.2c0-1.6,1.4-3,3.1-3h11l-1.2,2.4h-8.1
		c-0.4,0-0.7,0.3-0.7,0.6V46c0,0.4,0.4,0.6,0.7,0.6h14v-7.9c0-1.5-1.4-2.7-2.9-2.7H40.1L41.7,32.7z M150.7,26.3V50h-19.3
		c-1.8,0-3.3-1.4-3.3-3.2v-8.9c0-2.9,2.5-5.3,5.5-5.3h11l-1.6,3.4h-7.7c-1.5,0-2.9,1.2-2.9,2.7V46c0,0.4,0.4,0.6,0.7,0.6h13.4V26.3
		H150.7z M82.8,50h4.3V37.9c0-2.9-2.5-5.3-5.5-5.3h-9.1L70.9,36h9c1.5,0,2.9,1.2,2.9,2.7V50z M65,26.3V50h4.3v0V26.3H65z M29.3,50
		h4.3V37.9c0-2.9-2.5-5.3-5.5-5.3H0V50h4.3V36.7C4.3,36.3,4.7,36,5,36h8.8c0.4,0,0.7,0.3,0.7,0.6V50h4.3V36.7c0-0.4,0.4-0.6,0.7-0.6
		h6.7c1.5,0,2.9,1.2,2.9,2.7V50z M173,32.7h-10.7c-3,0-5.5,2.4-5.5,5.3V50h4.3V38.7c0-1.5,1.4-2.7,2.9-2.7h7.4L173,32.7z
		 M118.2,32.7c3,0,5.5,2.4,5.5,5.3V50h-4.3V38.7c0-1.5-1.4-2.7-2.9-2.7h-10.3v14H102V32.7C107.4,32.7,112.8,32.7,118.2,32.7
		 M92.4,33.8l4.3-2.4V50h-4.3V33.8z M96.7,28.9v-2.6h-4.3v5L96.7,28.9z M176,32.7h13.3c3,0,5.5,2.4,5.5,5.3V50h-19.8
		c-1.8,0-3.3-1.4-3.3-3.2v-4.2c0-1.6,1.4-3,3.1-3h11l-1.2,2.4h-8.1c-0.4,0-0.7,0.3-0.7,0.6V46c0,0.4,0.4,0.6,0.7,0.6h14v-7.9
		c0-1.5-1.4-2.7-2.9-2.7h-13.2L176,32.7z">
  </path>
 </g>
</svg>