<svg version="1.1" id="Layer_1" xmlns:x="ns_extend;" xmlns:i="ns_ai;" xmlns:graph="ns_graphs;" xmlns="http://www.w3.org/2000/svg" xmlns:xlink="http://www.w3.org/1999/xlink" x="0px" y="0px" viewBox="0 0 357.9 83" style="enable-background:new 0 0 357.9 83;" xml:space="preserve">
 <style type="text/css">
  .st0{fill:#FFFFFF;}
 </style>
 <metadata>
  <sfw xmlns="ns_sfw;">
   <slices>
   </slices>
   <sliceSourceBounds bottomLeftOrigin="true" height="83" width="357.9" x="20.8" y="-241.7">
   </sliceSourceBounds>
  </sfw>
 </metadata>
 <g>
  <path class="st0" d="M212.4,83L212.4,83c-14,0-26.3-9.9-26.3-27.7V18.7h14.6v37.6c0,8.2,4.2,13.6,11.8,13.6
		c7.6,0,11.8-5.4,11.8-13.6V18.7h14.6v36.6C238.9,73.1,226.4,83,212.4,83">
  </path>
  <path class="st0" d="M85,0H70.7v17.3C78.1,14.5,83.7,8,85,0">
  </path>
  <path class="st0" d="M70.7,20.2v61.4h14.6V40.2C84.9,31,79,23.2,70.7,20.2">
  </path>
  <path class="st0" d="M121.2,18.7c-12.4,0-22.5,10.1-22.5,22.5v40.3H113V43.1c0-6.2,5-11.3,11.3-11.3h5.2V18.7H121.2z">
  </path>
  <path class="st0" d="M279.4,43.9l-9.9-2.3c-0.5-0.1-0.9-0.2-1.3-0.4c-2.9-1-4.9-2.9-4.9-5.6c0-3.2,3.2-5.9,8.6-5.9
		c7.1,0,12,4.1,14.8,8l9.1-10c-5.8-6-13-10.5-23.5-10.5c-13.2,0-23,7.1-23,18.7c0,10.9,7.3,16.9,19.1,19.9l8.3,2.1
		c1,0.3,1.9,0.6,2.7,0.9c3.4,1.4,4.6,3.1,4.6,5.3c0,3.1-2.2,6.4-9.8,6.4c-7.5,0-13.5-3.1-18.2-9.2l-9.2,9.5
		c4.9,6.2,13,12.2,26.2,12.2c16.5,0,25-8.6,25-19.5C298.2,52.5,290.2,46.4,279.4,43.9">
  </path>
  <path class="st0" d="M176.6,68.4c-0.4,0-3.4,0.3-4.7,0.3h0h0c-8.2,0-10.3-2.3-10.3-11.4V31.8h0.1h15V18.7h-15h-0.1V0h-14.4v18.7
		h-9.2v13.1h9.2v27.6c0,15.9,5.3,22.3,21.7,22.3c4.6,0,7.4-0.2,7.8-0.3V68.4z">
  </path>
  <polygon class="st0" points="60.6,18.7 38.2,81.6 22.3,81.6 0,18.7 15,18.7 30.3,64.8 45.6,18.7 	">
  </polygon>
  <path class="st0" d="M328.3,70.7c-6.9,0-10.1-3.6-10.1-7.8c0-5.5,4.8-8.4,11.9-8.4c5.6,0,10,1.2,14,2.7v7.7
		C340.6,68.2,334.3,70.7,328.3,70.7 M343.5,76.7c0.2-0.2,0.4-0.3,0.6-0.5v5.4h13.8V40.9c0-16-11.2-23.7-26.8-23.7
		c-9.6,0-19.9,4.2-24.9,13.1l9.8,9.2c4-7.2,10.1-9.1,15-9.2c7.8-0.1,13.1,5.1,13.1,11.5l0,3.4c-0.3-0.1-0.5-0.2-0.8-0.3v0
		c-0.4-0.1-0.9-0.3-1.5-0.5c-0.1,0-0.3-0.1-0.4-0.1c-0.1,0-0.2,0-0.3-0.1c-0.2,0-0.3-0.1-0.5-0.1c-0.1,0-0.3-0.1-0.4-0.1
		c-0.1,0-0.1,0-0.2-0.1c-2.7-0.7-6.2-1.3-9.4-1.3c-14.5,0-26.2,6.7-26.2,21c0,12.1,9.7,19.1,21.2,19.1
		C333.6,83,339.5,80.2,343.5,76.7z">
  </path>
 </g>
</svg>